<svg xmlns="http://www.w3.org/2000/svg" xmlns:xlink="http://www.w3.org/1999/xlink" width="500" zoomAndPan="magnify" viewBox="0 0 375 74.999997" height="100" preserveAspectRatio="xMidYMid meet" version="1.0"><defs><g/><clipPath id="648662516c"><path d="M 2 17.40625 L 42 17.40625 L 42 57.554688 L 2 57.554688 Z M 2 17.40625 " clip-rule="nonzero"/></clipPath></defs><rect x="-37.5" width="450" fill="#ffffff" y="-7.5" height="89.999996" fill-opacity="1"/><rect x="-37.5" width="450" fill="#ffffff" y="-7.5" height="89.999996" fill-opacity="1"/><rect x="-37.5" width="450" fill="#ffffff" y="-7.5" height="89.999996" fill-opacity="1"/><g clip-path="url(#648662516c)"><path fill="#000000" d="M 9.921875 50.328125 L 10.375 50.777344 L 10.421875 50.824219 C 11.835938 52.289062 11.820312 54.648438 10.375 56.09375 C 8.933594 57.539062 6.574219 57.554688 5.109375 56.140625 L 5.0625 56.09375 L 4.609375 55.644531 L 3.371094 54.402344 C 1.910156 52.941406 1.910156 50.550781 3.371094 49.085938 C 4.832031 47.625 7.226562 47.625 8.683594 49.085938 Z M 34.984375 29.761719 L 35.421875 29.320312 L 40.558594 24.183594 C 42.019531 22.722656 42.019531 20.332031 40.558594 18.867188 C 39.09375 17.40625 36.703125 17.40625 35.246094 18.867188 L 27.011719 27.101562 C 25.554688 28.5625 25.554688 30.953125 27.011719 32.417969 L 29.667969 35.078125 L 30.144531 35.546875 L 35.28125 40.6875 C 36.742188 42.148438 39.128906 42.148438 40.59375 40.6875 C 42.054688 39.226562 42.054688 36.832031 40.59375 35.371094 L 35.457031 30.230469 Z M 3.582031 18.902344 L 3.582031 18.894531 C 5.042969 17.433594 7.4375 17.433594 8.898438 18.894531 L 40.523438 50.546875 C 41.988281 52.007812 41.988281 54.402344 40.523438 55.863281 C 39.0625 57.324219 36.675781 57.324219 35.210938 55.863281 L 3.582031 24.210938 C 2.125 22.75 2.125 20.363281 3.582031 18.902344 Z M 3.539062 34.050781 C 4.996094 32.589844 7.386719 32.589844 8.851562 34.050781 L 12.453125 37.65625 L 20.246094 45.453125 L 25.382812 50.59375 C 26.839844 52.050781 26.839844 54.449219 25.382812 55.910156 C 23.917969 57.367188 21.527344 57.367188 20.070312 55.910156 L 14.933594 50.769531 L 7.140625 42.972656 L 3.539062 39.367188 C 2.078125 37.90625 2.078125 35.511719 3.539062 34.050781 Z M 3.539062 34.050781 " fill-opacity="1" fill-rule="evenodd"/></g><g fill="#000000" fill-opacity="1"><g transform="translate(57.010616, 48.286389)"><g><path d="M 12.953125 0.40625 C 10.566406 0.40625 8.519531 -0.101562 6.8125 -1.125 C 5.113281 -2.144531 3.804688 -3.566406 2.890625 -5.390625 C 1.972656 -7.222656 1.515625 -9.335938 1.515625 -11.734375 C 1.515625 -14.128906 1.972656 -16.242188 2.890625 -18.078125 C 3.804688 -19.921875 5.113281 -21.359375 6.8125 -22.390625 C 8.519531 -23.421875 10.566406 -23.9375 12.953125 -23.9375 C 15.773438 -23.9375 18.085938 -23.234375 19.890625 -21.828125 C 21.691406 -20.429688 22.816406 -18.46875 23.265625 -15.9375 L 18.53125 -15.9375 C 18.238281 -17.21875 17.613281 -18.222656 16.65625 -18.953125 C 15.707031 -19.679688 14.445312 -20.046875 12.875 -20.046875 C 10.695312 -20.046875 8.992188 -19.304688 7.765625 -17.828125 C 6.535156 -16.347656 5.921875 -14.316406 5.921875 -11.734375 C 5.921875 -9.160156 6.535156 -7.140625 7.765625 -5.671875 C 8.992188 -4.203125 10.695312 -3.46875 12.875 -3.46875 C 14.445312 -3.46875 15.707031 -3.804688 16.65625 -4.484375 C 17.613281 -5.171875 18.238281 -6.117188 18.53125 -7.328125 L 23.265625 -7.328125 C 22.816406 -4.910156 21.691406 -3.015625 19.890625 -1.640625 C 18.085938 -0.273438 15.773438 0.40625 12.953125 0.40625 Z M 12.953125 0.40625 "/></g></g></g><g fill="#000000" fill-opacity="1"><g transform="translate(86.998251, 48.286389)"><g><path d="M 13.3125 0.40625 C 10.957031 0.40625 8.898438 -0.109375 7.140625 -1.140625 C 5.378906 -2.171875 4 -3.597656 3 -5.421875 C 2.007812 -7.253906 1.515625 -9.367188 1.515625 -11.765625 C 1.515625 -14.160156 2.007812 -16.269531 3 -18.09375 C 4 -19.925781 5.378906 -21.359375 7.140625 -22.390625 C 8.898438 -23.421875 10.957031 -23.9375 13.3125 -23.9375 C 15.644531 -23.9375 17.695312 -23.421875 19.46875 -22.390625 C 21.238281 -21.359375 22.613281 -19.925781 23.59375 -18.09375 C 24.582031 -16.269531 25.078125 -14.160156 25.078125 -11.765625 C 25.078125 -9.367188 24.582031 -7.253906 23.59375 -5.421875 C 22.613281 -3.597656 21.238281 -2.171875 19.46875 -1.140625 C 17.695312 -0.109375 15.644531 0.40625 13.3125 0.40625 Z M 13.3125 -3.46875 C 15.550781 -3.46875 17.335938 -4.207031 18.671875 -5.6875 C 20.003906 -7.164062 20.671875 -9.191406 20.671875 -11.765625 C 20.671875 -14.347656 20.003906 -16.378906 18.671875 -17.859375 C 17.335938 -19.335938 15.550781 -20.078125 13.3125 -20.078125 C 11.070312 -20.078125 9.28125 -19.335938 7.9375 -17.859375 C 6.59375 -16.378906 5.921875 -14.347656 5.921875 -11.765625 C 5.921875 -9.191406 6.59375 -7.164062 7.9375 -5.6875 C 9.28125 -4.207031 11.070312 -3.46875 13.3125 -3.46875 Z M 13.3125 -3.46875 "/></g></g></g><g fill="#000000" fill-opacity="1"><g transform="translate(118.801231, 48.286389)"><g><path d="M 2.28125 0 L 2.28125 -23.53125 L 6.59375 -23.53125 L 17.65625 -6.953125 L 17.65625 -23.53125 L 21.953125 -23.53125 L 21.953125 0 L 17.65625 0 L 6.59375 -16.546875 L 6.59375 0 Z M 2.28125 0 "/></g></g></g><g fill="#000000" fill-opacity="1"><g transform="translate(148.250999, 48.286389)"><g><path d="M 7.765625 0 L 7.765625 -20.078125 L 0.90625 -20.078125 L 0.90625 -23.53125 L 18.96875 -23.53125 L 18.96875 -20.078125 L 12.078125 -20.078125 L 12.078125 0 Z M 7.765625 0 "/></g></g></g><g fill="#000000" fill-opacity="1"><g transform="translate(173.330493, 48.286389)"><g><path d="M 0.765625 0 L 9.375 -23.53125 L 14.21875 -23.53125 L 22.828125 0 L 18.265625 0 L 16.375 -5.453125 L 7.203125 -5.453125 L 5.28125 0 Z M 8.375 -8.8125 L 15.203125 -8.8125 L 11.765625 -18.59375 Z M 8.375 -8.8125 "/></g></g></g><g fill="#000000" fill-opacity="1"><g transform="translate(202.1079, 48.286389)"><g><path d="M 12.953125 0.40625 C 10.566406 0.40625 8.519531 -0.101562 6.8125 -1.125 C 5.113281 -2.144531 3.804688 -3.566406 2.890625 -5.390625 C 1.972656 -7.222656 1.515625 -9.335938 1.515625 -11.734375 C 1.515625 -14.128906 1.972656 -16.242188 2.890625 -18.078125 C 3.804688 -19.921875 5.113281 -21.359375 6.8125 -22.390625 C 8.519531 -23.421875 10.566406 -23.9375 12.953125 -23.9375 C 15.773438 -23.9375 18.085938 -23.234375 19.890625 -21.828125 C 21.691406 -20.429688 22.816406 -18.46875 23.265625 -15.9375 L 18.53125 -15.9375 C 18.238281 -17.21875 17.613281 -18.222656 16.65625 -18.953125 C 15.707031 -19.679688 14.445312 -20.046875 12.875 -20.046875 C 10.695312 -20.046875 8.992188 -19.304688 7.765625 -17.828125 C 6.535156 -16.347656 5.921875 -14.316406 5.921875 -11.734375 C 5.921875 -9.160156 6.535156 -7.140625 7.765625 -5.671875 C 8.992188 -4.203125 10.695312 -3.46875 12.875 -3.46875 C 14.445312 -3.46875 15.707031 -3.804688 16.65625 -4.484375 C 17.613281 -5.171875 18.238281 -6.117188 18.53125 -7.328125 L 23.265625 -7.328125 C 22.816406 -4.910156 21.691406 -3.015625 19.890625 -1.640625 C 18.085938 -0.273438 15.773438 0.40625 12.953125 0.40625 Z M 12.953125 0.40625 "/></g></g></g><g fill="#000000" fill-opacity="1"><g transform="translate(232.095532, 48.286389)"><g><path d="M 7.765625 0 L 7.765625 -20.078125 L 0.90625 -20.078125 L 0.90625 -23.53125 L 18.96875 -23.53125 L 18.96875 -20.078125 L 12.078125 -20.078125 L 12.078125 0 Z M 7.765625 0 "/></g></g></g><g fill="#000000" fill-opacity="1"><g transform="translate(257.175026, 48.286389)"><g><path d="M 10.328125 0.40625 C 8.597656 0.40625 7.070312 0.109375 5.75 -0.484375 C 4.425781 -1.078125 3.382812 -1.925781 2.625 -3.03125 C 1.863281 -4.144531 1.472656 -5.5 1.453125 -7.09375 L 5.984375 -7.09375 C 6.023438 -6 6.421875 -5.070312 7.171875 -4.3125 C 7.929688 -3.5625 8.972656 -3.1875 10.296875 -3.1875 C 11.429688 -3.1875 12.332031 -3.460938 13 -4.015625 C 13.675781 -4.566406 14.015625 -5.300781 14.015625 -6.21875 C 14.015625 -7.1875 13.71875 -7.9375 13.125 -8.46875 C 12.53125 -9.007812 11.738281 -9.445312 10.75 -9.78125 C 9.769531 -10.125 8.71875 -10.484375 7.59375 -10.859375 C 5.78125 -11.484375 4.394531 -12.289062 3.4375 -13.28125 C 2.488281 -14.269531 2.015625 -15.582031 2.015625 -17.21875 C 1.992188 -18.601562 2.320312 -19.796875 3 -20.796875 C 3.6875 -21.796875 4.625 -22.566406 5.8125 -23.109375 C 7 -23.660156 8.367188 -23.9375 9.921875 -23.9375 C 11.484375 -23.9375 12.863281 -23.65625 14.0625 -23.09375 C 15.269531 -22.539062 16.210938 -21.757812 16.890625 -20.75 C 17.578125 -19.738281 17.941406 -18.539062 17.984375 -17.15625 L 13.375 -17.15625 C 13.351562 -17.976562 13.035156 -18.707031 12.421875 -19.34375 C 11.804688 -19.988281 10.953125 -20.3125 9.859375 -20.3125 C 8.910156 -20.332031 8.113281 -20.097656 7.46875 -19.609375 C 6.832031 -19.128906 6.515625 -18.429688 6.515625 -17.515625 C 6.515625 -16.734375 6.757812 -16.113281 7.25 -15.65625 C 7.75 -15.195312 8.425781 -14.804688 9.28125 -14.484375 C 10.132812 -14.171875 11.109375 -13.835938 12.203125 -13.484375 C 13.367188 -13.078125 14.429688 -12.601562 15.390625 -12.0625 C 16.359375 -11.53125 17.132812 -10.820312 17.71875 -9.9375 C 18.300781 -9.050781 18.59375 -7.910156 18.59375 -6.515625 C 18.59375 -5.285156 18.28125 -4.144531 17.65625 -3.09375 C 17.03125 -2.039062 16.097656 -1.191406 14.859375 -0.546875 C 13.628906 0.0859375 12.117188 0.40625 10.328125 0.40625 Z M 10.328125 0.40625 "/></g></g></g><g fill="#000000" fill-opacity="1"><g transform="translate(282.45623, 48.286389)"><g/></g></g><g fill="#000000" fill-opacity="1"><g transform="translate(295.668773, 48.286389)"><g><path d="M 0.765625 0 L 9.375 -23.53125 L 14.21875 -23.53125 L 22.828125 0 L 18.265625 0 L 16.375 -5.453125 L 7.203125 -5.453125 L 5.28125 0 Z M 8.375 -8.8125 L 15.203125 -8.8125 L 11.765625 -18.59375 Z M 8.375 -8.8125 "/></g></g></g><g fill="#000000" fill-opacity="1"><g transform="translate(324.446192, 48.286389)"><g><path d="M 2.28125 0 L 2.28125 -23.53125 L 11 -23.53125 C 12.875 -23.53125 14.425781 -23.21875 15.65625 -22.59375 C 16.894531 -21.96875 17.816406 -21.101562 18.421875 -20 C 19.023438 -18.90625 19.328125 -17.675781 19.328125 -16.3125 C 19.328125 -15.007812 19.035156 -13.8125 18.453125 -12.71875 C 17.867188 -11.632812 16.960938 -10.757812 15.734375 -10.09375 C 14.503906 -9.4375 12.925781 -9.109375 11 -9.109375 L 6.59375 -9.109375 L 6.59375 0 Z M 6.59375 -12.609375 L 10.71875 -12.609375 C 12.226562 -12.609375 13.3125 -12.9375 13.96875 -13.59375 C 14.632812 -14.257812 14.96875 -15.164062 14.96875 -16.3125 C 14.96875 -17.476562 14.632812 -18.390625 13.96875 -19.046875 C 13.3125 -19.710938 12.226562 -20.046875 10.71875 -20.046875 L 6.59375 -20.046875 Z M 6.59375 -12.609375 "/></g></g></g><g fill="#000000" fill-opacity="1"><g transform="translate(350.063579, 48.286389)"><g><path d="M 2.28125 0 L 2.28125 -23.53125 L 11 -23.53125 C 12.875 -23.53125 14.425781 -23.21875 15.65625 -22.59375 C 16.894531 -21.96875 17.816406 -21.101562 18.421875 -20 C 19.023438 -18.90625 19.328125 -17.675781 19.328125 -16.3125 C 19.328125 -15.007812 19.035156 -13.8125 18.453125 -12.71875 C 17.867188 -11.632812 16.960938 -10.757812 15.734375 -10.09375 C 14.503906 -9.4375 12.925781 -9.109375 11 -9.109375 L 6.59375 -9.109375 L 6.59375 0 Z M 6.59375 -12.609375 L 10.71875 -12.609375 C 12.226562 -12.609375 13.3125 -12.9375 13.96875 -13.59375 C 14.632812 -14.257812 14.96875 -15.164062 14.96875 -16.3125 C 14.96875 -17.476562 14.632812 -18.390625 13.96875 -19.046875 C 13.3125 -19.710938 12.226562 -20.046875 10.71875 -20.046875 L 6.59375 -20.046875 Z M 6.59375 -12.609375 "/></g></g></g></svg>